<svg xmlns="http://www.w3.org/2000/svg" width="100" height="101" fill="none"><rect width="100" height="100" fill="#152033" rx="50"/><path fill="#F7F7FC" d="M38.333 40.667C38.333 34.223 43.557 29 50 29s11.667 5.223 11.667 11.667c0 6.443-5.224 11.666-11.667 11.666S38.333 47.11 38.333 40.667Zm11.667 7a7 7 0 1 0 0-14 7 7 0 0 0 0 14ZM36.8 60.134a18.667 18.667 0 0 0-5.467 13.2H36a14 14 0 0 1 28 0h4.667a18.667 18.667 0 0 0-31.866-13.2ZM85 99c-5.52-.006-9.994-4.48-10-10v-.2c.11-5.495 4.635-9.872 10.13-9.8 5.497.074 9.904 4.569 9.868 10.065C94.962 94.562 90.497 99 85 99Zm-5-11v2h4v4h2v-4h4v-2h-4v-4h-2v4h-4Z"/></svg>