<?xml version="1.0" encoding="UTF-8"?>
<svg xmlns="http://www.w3.org/2000/svg" width="262" height="271" viewBox="0 0 262 271" fill="none">
  <rect x="3.89368" y="43" width="117.463" height="117.463" rx="58.7314" fill="#CDE1FD"></rect>
  <g clip-path="url(#clip0_1_155)">
    <path d="M94.8317 71.6702L101.685 65.6163H94.6947L94.8317 71.6702Z" fill="#002DE3"></path>
    <path d="M131.53 66.3018H97.4269C92.2086 66.3018 87.9783 62.0715 87.9783 56.8531V52.4487C87.9783 47.2303 92.2086 43 97.4269 43L131.53 43C136.748 43 140.978 47.2303 140.978 52.4487V56.8531C140.978 62.0715 136.748 66.3018 131.53 66.3018Z" fill="#002DE3"></path>
    <path d="M107.396 56.7069C106.261 56.7069 105.34 55.7864 105.34 54.6509C105.34 53.5154 106.261 52.5948 107.396 52.5948C108.532 52.5948 109.452 53.5154 109.452 54.6509C109.452 55.7864 108.532 56.7069 107.396 56.7069Z" fill="white"></path>
    <path d="M114.478 56.7069C113.343 56.7069 112.422 55.7864 112.422 54.6509C112.422 53.5154 113.343 52.5948 114.478 52.5948C115.614 52.5948 116.534 53.5154 116.534 54.6509C116.534 55.7864 115.614 56.7069 114.478 56.7069Z" fill="white"></path>
    <path d="M121.56 56.7069C120.425 56.7069 119.504 55.7864 119.504 54.6509C119.504 53.5154 120.425 52.5948 121.56 52.5948C122.696 52.5948 123.616 53.5154 123.616 54.6509C123.616 55.7864 122.696 56.7069 121.56 56.7069Z" fill="white"></path>
  </g>
  <path d="M127.264 142.517L118.17 139.322L111.209 159.134L120.302 162.329L127.264 142.517Z" fill="#1F161E"></path>
  <path d="M132.978 238.212C133.37 238.829 135.457 242.541 136.613 242.921C138.707 243.602 149.545 239.693 149.838 239.177C150.13 238.66 149.964 237.806 149.353 237.732C148.741 237.659 143.903 238.391 143.119 238.286C142.335 238.18 140.521 236.914 140.308 236" fill="#1F161E"></path>
  <path d="M0.978149 181.244C0.978149 206.183 12.1722 211.42 23.3076 211.42C51.5144 211.42 88.2111 195.385 90.2831 194.767C89.6315 197.39 85.5201 263.885 85.5201 264.268C86.4974 264.809 93.9906 265.275 96.5122 264.809C97.1637 263.192 116.978 184.103 116.978 182.02C116.978 179.937 115.271 176.769 108.814 176.312C106.084 176.118 68.1035 175 68.1035 175" fill="#1F161E"></path>
  <path d="M95.8655 164C104.364 172.746 142.312 233.799 141.976 235.226C141.639 236.653 132.914 239.678 131.07 238.863C123.244 235.434 75.1987 177.81 73.3281 176.94C71.4576 176.07 68.6549 176.406 66.985 176.645C62.6419 171.513 72.3637 165.418 95.8655 164Z" fill="#0F1828"></path>
  <path d="M57.5023 94.266C70.2797 94.266 73.9537 106.365 75.0108 110.933C78.3912 125.518 68.9811 180.94 67.8913 182.468C58.6443 195.395 5.78609 196.543 0.630775 190.944C-4.52454 185.345 22.5898 94.266 57.5023 94.266Z" fill="#375FFF"></path>
  <path d="M86.9754 264C86.8039 264.63 85.5115 268.318 86.1577 269.039C87.3182 270.343 99.3915 271.242 100.051 270.942C100.71 270.642 101.258 269.908 100.822 269.639C100.387 269.37 95.8111 268.162 95.2506 267.788C94.6901 267.415 94.222 265.755 94.7956 264.956" fill="#1F161E"></path>
  <path d="M55.5903 96.8175C55.2444 97.9269 64.2629 100.733 64.6088 99.6301L68.1066 88.4058L59.0946 85.5933L55.5903 96.8175Z" fill="#F8CDBA"></path>
  <path d="M64.5305 91.0618C63.6496 90.7877 57.2478 91.5251 56.8171 92.9086L59.0946 85.5933C60.4976 86.0305 64.5305 91.0618 64.5305 91.0618Z" fill="#1F161E"></path>
  <path d="M69.5618 92.8629C76.8745 92.8629 82.8025 86.9349 82.8025 79.6223C82.8025 72.3096 76.8745 66.3816 69.5618 66.3816C62.2492 66.3816 56.3212 72.3096 56.3212 79.6223C56.3212 86.9349 62.2492 92.8629 69.5618 92.8629Z" fill="#F8CDBA"></path>
  <path d="M82.7686 86.5974C82.9672 85.9609 82.1353 85.1351 80.9105 84.7529C79.6857 84.3708 78.5319 84.5769 78.3332 85.2134C78.1346 85.8499 78.9665 86.6757 80.1913 87.0579C81.4161 87.44 82.57 87.2339 82.7686 86.5974Z" fill="#FA9E9F"></path>
  <path d="M68.8465 82.2561C69.0451 81.6196 68.2132 80.7938 66.9884 80.4116C65.7636 80.0295 64.6097 80.2356 64.4111 80.8721C64.2125 81.5086 65.0444 82.3344 66.2692 82.7165C67.494 83.0987 68.6479 82.8926 68.8465 82.2561Z" fill="#FA9E9F"></path>
  <path d="M75.8983 81.8345C76.1267 82.5523 77.4841 85.6977 74.9325 86.0044" stroke="#0F1828" stroke-width="1.2" stroke-miterlimit="10" stroke-linecap="round"></path>
  <path d="M69.5554 87.5053C68.9028 87.2769 68.1197 86.1545 67.813 85.2344" stroke="#0F1828" stroke-width="1.2" stroke-miterlimit="10" stroke-linecap="round"></path>
  <path d="M73.5687 62.2508C70.0774 61.8136 59.943 58.7987 57.6394 56.704C56.5496 57.2782 52.3144 61.0827 48.8623 66.2315L53.7632 71.1584L47.5703 68.3002C45.9382 70.9745 44.8164 73.9284 44.2617 77.012C45.8605 81.3255 50.8788 83.1005 51.825 83.2179C57.9266 83.988 60.2693 74.5061 63.3429 73.3315C68.5635 71.3281 74.7107 76.5291 82.4437 76.2028C84.1599 72.6985 81.9281 63.3015 73.5687 62.2508Z" fill="#1F161E"></path>
  <path d="M57.4241 80.4901C59.1144 80.4901 60.4846 79.1199 60.4846 77.4296C60.4846 75.7393 59.1144 74.369 57.4241 74.369C55.7338 74.369 54.3635 75.7393 54.3635 77.4296C54.3635 79.1199 55.7338 80.4901 57.4241 80.4901Z" fill="#F8CDBA"></path>
  <path d="M44.2617 125.302C43.6091 129.387 41.4948 167.961 46.5588 171.713C57.4045 179.746 107.489 169.919 115.079 167.106C115.901 164.417 115.079 155.875 115.079 155.875C112.155 155.758 75.2719 155.405 73.0727 152.612C70.8736 149.819 70.6125 126.986 70.9649 124.408" fill="#375FFF"></path>
  <path d="M120.182 168C124.099 168 127.275 164.824 127.275 160.907C127.275 156.989 124.099 153.813 120.182 153.813C116.264 153.813 113.088 156.989 113.088 160.907C113.088 164.824 116.264 168 120.182 168Z" fill="#F8CDBA"></path>
  <path d="M73.0662 152.632C70.8409 149.819 70.606 127.005 70.9584 124.428" stroke="#0F1828" stroke-linecap="round" stroke-linejoin="round"></path>
  <path d="M69.601 174.611C59.3818 175.178 50.4481 174.611 46.5588 171.713C44.34 170.075 43.4982 161.768 43.2959 152.599" stroke="#0F1828" stroke-linecap="round" stroke-linejoin="round"></path>
  <g clip-path="url(#clip1_1_155)">
    <rect x="162" width="100" height="100" rx="50" fill="#CDE1FD"></rect>
    <g clip-path="url(#clip2_1_155)">
      <path d="M176.094 56.6803C174.972 55.8936 170.217 50.1129 169.657 48.1701C169.096 46.2272 168.675 38.9036 174.22 40.5682C179.766 42.2329 177.263 48.1005 181.175 51.7993" fill="#F8CDBA"></path>
      <path d="M174.238 35.3285L169.221 39.3336L177.947 50.2645L182.964 46.2594L174.238 35.3285Z" fill="#1F161E"></path>
      <path d="M244.802 51.7993C246.166 53.0685 260.123 76.5737 260.123 79.5162C260.123 82.4588 256.902 100.305 255.05 104.112C253.199 107.92 244.802 51.7993 244.802 51.7993Z" fill="#1F161E"></path>
      <path d="M236.591 45.2581C256.68 45.2581 259.306 116.052 257.889 118.899C256.472 121.746 221.344 121.416 218.497 118.899C215.65 116.382 218.115 45.2581 236.591 45.2581Z" fill="#002DE3"></path>
      <path d="M232.979 47.6225C232.979 48.8829 239.934 48.9785 239.934 47.6225V39.1731H232.979V47.6225Z" fill="#F8CDBA"></path>
      <path d="M239.942 44.2105C239.942 43.4586 238.204 40.8638 236.9 41.3028C238.538 40.7247 239.347 38.7515 239.942 39.1557V44.2105Z" fill="#0F1828"></path>
      <path d="M233.371 42.0156C238.366 42.0156 242.415 37.9661 242.415 32.9707C242.415 27.9754 238.366 23.9259 233.371 23.9259C228.375 23.9259 224.326 27.9754 224.326 32.9707C224.326 37.9661 228.375 42.0156 233.371 42.0156Z" fill="#F8CDBA"></path>
      <path d="M224.226 34.9701C225.059 34.9701 225.734 34.6179 225.734 34.1834C225.734 33.7489 225.059 33.3967 224.226 33.3967C223.393 33.3967 222.718 33.7489 222.718 34.1834C222.718 34.6179 223.393 34.9701 224.226 34.9701Z" fill="#FA9E9F"></path>
      <path d="M233.71 34.9701C234.543 34.9701 235.218 34.6179 235.218 34.1834C235.218 33.7489 234.543 33.3967 233.71 33.3967C232.877 33.3967 232.201 33.7489 232.201 34.1834C232.201 34.6179 232.877 34.9701 233.71 34.9701Z" fill="#FA9E9F"></path>
      <path d="M227.898 32.5536C227.62 32.9578 226.16 34.6485 227.699 35.3309" stroke="#0F1828" stroke-width="0.69" stroke-miterlimit="10" stroke-linecap="round"></path>
      <path d="M230.75 37.3042C231.184 37.3042 231.901 36.7435 232.271 36.235" stroke="#0F1828" stroke-width="0.69" stroke-miterlimit="10" stroke-linecap="round"></path>
      <path d="M242.016 27.6986C242.016 24.5605 237.639 22.2222 234.592 22.2222C229.741 22.2222 223.83 23.4044 222.857 23.7478C221.222 24.3171 220.944 26.06 220.944 26.6424C220.944 29.0851 221.813 30.6064 224.526 30.9888C224.711 30.1272 225.031 29.3 225.473 28.5375C226.224 28.249 227.052 28.2351 227.812 28.4984C228.498 28.7374 234.235 31.4409 238.482 31.4409C239.047 32.2362 240.29 37.0912 239.925 39.1514C241.168 39.2252 243.459 35.1788 243.576 33.0664C243.602 32.3415 243.459 31.6204 243.157 30.9608C242.855 30.3012 242.403 29.7214 241.837 29.2677C241.894 28.8113 242.016 27.9464 242.016 27.6986Z" fill="#0F1828"></path>
      <path d="M238.882 35.3917C239.981 35.3917 240.872 34.5004 240.872 33.401C240.872 32.3016 239.981 31.4104 238.882 31.4104C237.782 31.4104 236.891 32.3016 236.891 33.401C236.891 34.5004 237.782 35.3917 238.882 35.3917Z" fill="#F8CDBA"></path>
      <path d="M241.872 64.3821C236.891 71.9927 209.961 83.9974 207.127 83.9974C199.612 83.9974 177.363 59.3056 176.094 56.6716C177.559 55.1069 180.679 51.7906 181.166 51.7906C181.653 51.7906 202.833 66.4293 206.836 66.4293C210.839 66.4293 229.811 53.0815 232.28 52.4817" fill="#002DE3"></path>
      <path d="M225.569 56.3022C228.85 54.2637 231.462 52.6773 232.28 52.4817" stroke="#0F1828" stroke-linecap="round" stroke-linejoin="round"></path>
      <path d="M219.932 78.9209C228.624 74.744 238.973 68.8242 241.872 64.3909" stroke="#0F1828" stroke-linecap="round" stroke-linejoin="round"></path>
      <path d="M218.528 89.6912C218.706 87.9918 227.512 75.07 229.211 74.0703C227.407 75.0743 220.579 78.5384 219.932 78.9209C219.553 79.9336 218.528 89.6912 218.528 89.6912Z" fill="#1F161E"></path>
    </g>
  </g>
  <g clip-path="url(#clip3_1_155)">
    <path d="M192.922 26.4246L186.845 21.056H193.044L192.922 26.4246Z" fill="#375FFF"></path>
    <path d="M160.379 21.6638L190.621 21.6638C195.249 21.6638 199 17.9124 199 13.2849V9.37899C199 4.75141 195.249 1.00002 190.621 1.00002L160.379 1.00002C155.751 1.00002 152 4.75141 152 9.37899V13.2849C152 17.9124 155.751 21.6638 160.379 21.6638Z" fill="#375FFF"></path>
    <path d="M181.78 13.1552C182.787 13.1552 183.603 12.3389 183.603 11.3319C183.603 10.325 182.787 9.50867 181.78 9.50867C180.773 9.50867 179.957 10.325 179.957 11.3319C179.957 12.3389 180.773 13.1552 181.78 13.1552Z" fill="white"></path>
    <path d="M175.5 13.1552C176.507 13.1552 177.323 12.3389 177.323 11.3319C177.323 10.325 176.507 9.50867 175.5 9.50867C174.493 9.50867 173.677 10.325 173.677 11.3319C173.677 12.3389 174.493 13.1552 175.5 13.1552Z" fill="white"></path>
    <path d="M169.22 13.1552C170.227 13.1552 171.043 12.3389 171.043 11.3319C171.043 10.325 170.227 9.50867 169.22 9.50867C168.213 9.50867 167.397 10.325 167.397 11.3319C167.397 12.3389 168.213 13.1552 169.22 13.1552Z" fill="white"></path>
  </g>
  <defs>
    <clipPath id="clip0_1_155">
      <rect width="53" height="28.6703" fill="white" transform="matrix(-1 0 0 1 140.978 43)"></rect>
    </clipPath>
    <clipPath id="clip1_1_155">
      <rect x="162" width="100" height="100" rx="50" fill="white"></rect>
    </clipPath>
    <clipPath id="clip2_1_155">
      <rect width="111.111" height="219.523" fill="white" transform="translate(169.222 22.2222)"></rect>
    </clipPath>
    <clipPath id="clip3_1_155">
      <rect width="47" height="25.4246" fill="white" transform="translate(152 1)"></rect>
    </clipPath>
  </defs>
</svg>
